<?xml version="1.0" encoding="UTF-8"?>
<svg version="1.1" xmlns="http://www.w3.org/2000/svg" width="612" height="612">
<path d="M0 0 C1.13859141 0.00056958 1.13859141 0.00056958 2.30018467 0.00115067 C3.17302461 -0.00084038 4.04586455 -0.00283143 4.94515419 -0.00488281 C5.91497842 -0.00196997 6.88480265 0.00094287 7.8840155 0.00394398 C8.90575802 0.00308955 9.92750053 0.00223513 10.98020494 0.00135481 C14.43200012 -0.00030306 17.88374757 0.00522639 21.33553833 0.01067311 C23.79870869 0.01095494 26.26187913 0.01079732 28.72504944 0.0102306 C34.04254095 0.01000228 39.36001737 0.01285369 44.67750496 0.01846844 C52.36578213 0.02658125 60.05405337 0.02919843 67.74233436 0.03045643 C80.21481195 0.0326473 92.68728303 0.03930832 105.15975708 0.04875904 C117.27857185 0.05793227 129.39738485 0.06501354 141.51620239 0.06926686 C142.26268856 0.06952958 143.00917473 0.0697923 143.7782817 0.07006299 C147.52302886 0.07136799 151.26777604 0.0726317 155.01252323 0.07387489 C186.09928496 0.08424858 217.18603859 0.10194195 248.27279419 0.1241985 C248.40061646 7.84812152 248.40061646 7.84812152 246.10482544 10.491386 C245.6302893 11.0580901 245.15575317 11.6247942 244.66683716 12.20867115 C244.14492798 12.79954518 243.6230188 13.3904192 243.08529419 13.9991985 C241.97781741 15.31521962 240.872424 16.63299618 239.76888794 17.9523235 C239.19251587 18.63359303 238.6161438 19.31486256 238.02230591 20.01677662 C235.12162858 23.5108663 232.38838867 27.12911379 229.64779419 30.7491985 C228.55947824 32.17905783 227.4709397 33.60874776 226.38216919 35.038261 C225.59809692 36.06934986 225.59809692 36.06934986 224.79818481 37.12126881 C222.50728574 40.12935715 220.20382704 43.12770435 217.89779419 46.1241985 C216.80338012 47.5473235 216.80338012 47.5473235 215.68685669 48.9991985 C212.55874241 53.04853736 209.41424163 57.08519464 206.27279419 61.1241985 C180.53279419 61.1241985 154.79279419 61.1241985 128.27279419 61.1241985 C128.27279419 114.2541985 128.27279419 167.3841985 128.27279419 222.1241985 C104.18279419 222.1241985 80.09279419 222.1241985 55.27279419 222.1241985 C55.27279419 168.9941985 55.27279419 115.8641985 55.27279419 61.1241985 C21.94279419 61.1241985 -11.38720581 61.1241985 -45.72720581 61.1241985 C-46.05720581 59.8041985 -46.38720581 58.4841985 -46.72720581 57.1241985 C-45.20639735 54.79593484 -43.69987377 52.79559554 -41.91470581 50.6866985 C-40.89187862 49.43335648 -39.86975862 48.17943703 -38.84829956 46.92497975 C-38.32606812 46.29156666 -37.80383667 45.65815357 -37.26578003 45.00554615 C-34.94747193 42.17075049 -32.70743041 39.27849488 -30.47720581 36.3741985 C-30.06752564 35.84423268 -29.65784546 35.31426686 -29.23575073 34.76824147 C-26.01715128 30.57751214 -23.01649213 26.2611242 -20.10220581 21.85466725 C-19.64845581 21.28361256 -19.19470581 20.71255787 -18.72720581 20.1241985 C-18.06720581 20.1241985 -17.40720581 20.1241985 -16.72720581 20.1241985 C-16.45908081 19.5673235 -16.19095581 19.0104485 -15.91470581 18.4366985 C-14.61821085 15.91194515 -13.30244258 13.48705365 -11.72720581 11.1241985 C-11.06720581 11.1241985 -10.40720581 11.1241985 -9.72720581 11.1241985 C-9.50033081 10.4023235 -9.27345581 9.6804485 -9.03970581 8.9366985 C-7.47450973 5.58270689 -5.43027866 3.61934266 -2.72720581 1.1241985 C-1.72720581 0.1241985 -1.72720581 0.1241985 0 0 Z " fill="#94C30B" transform="translate(204.72720581293106,193.8758015036583)"/>
<path d="M0 0 C1.36451294 -0.00821777 1.36451294 -0.00821777 2.7565918 -0.01660156 C9.2380946 0.05456307 9.2380946 0.05456307 12.625 2.3125 C12.99414349 5.07299232 12.99414349 5.07299232 12.98576355 8.66519165 C12.98832682 9.32435243 12.9908901 9.98351321 12.99353105 10.66264856 C12.99849075 12.88162682 12.98194101 15.0999316 12.96557617 17.31884766 C12.96473037 18.90532922 12.96520413 20.49181197 12.96690369 22.07829285 C12.96776689 26.39425462 12.95008875 30.7099679 12.92918181 35.02587175 C12.91046901 39.53289065 12.90866884 44.0399148 12.90510559 48.54696655 C12.89576921 57.0857448 12.87113396 65.62440826 12.84105712 74.16313589 C12.8013036 85.69865237 12.7850711 97.23420009 12.76755047 108.76976776 C12.73931394 126.95076454 12.67955507 145.13151906 12.625 163.3125 C-11.465 163.3125 -35.555 163.3125 -60.375 163.3125 C-60.375 114.1425 -60.375 64.9725 -60.375 14.3125 C-60.045 14.3125 -59.715 14.3125 -59.375 14.3125 C-59.31441406 14.99957031 -59.25382812 15.68664062 -59.19140625 16.39453125 C-59.10761719 17.29558594 -59.02382813 18.19664062 -58.9375 19.125 C-58.85628906 20.01832031 -58.77507812 20.91164063 -58.69140625 21.83203125 C-58.44010233 24.43993559 -58.44010233 24.43993559 -57.375 27.3125 C-56.715 27.3125 -56.055 27.3125 -55.375 27.3125 C-55.11847656 26.57902344 -54.86195313 25.84554688 -54.59765625 25.08984375 C-51.04898593 17.02880671 -43.78951111 11.62880468 -36.375 7.3125 C-35.7975 6.93351562 -35.22 6.55453125 -34.625 6.1640625 C-24.61379497 0.21990951 -11.30779613 0.05067701 0 0 Z " fill="#377F12" transform="translate(320.375,252.6875)"/>
<path d="M0 0 C0.76600997 0.00092179 1.53201994 0.00184359 2.32124233 0.00279331 C3.19768902 0.00141865 4.0741357 0.00004398 4.97714138 -0.00137234 C6.43046368 0.00402058 6.43046368 0.00402058 7.91314602 0.00952244 C8.92766338 0.00937641 9.94218075 0.00923038 10.98744106 0.00907993 C14.35844936 0.00977954 17.72940317 0.01757414 21.10040188 0.02539158 C23.43067806 0.02725559 25.76095463 0.02867957 28.09123135 0.0296793 C34.23811828 0.03350581 40.38498176 0.04333723 46.5318594 0.05438328 C52.79884429 0.06459454 59.06583295 0.06917631 65.33282375 0.0742197 C77.63947471 0.08495938 89.94610822 0.10203739 102.25274563 0.12304783 C102.25274563 0.78304783 102.25274563 1.44304783 102.25274563 2.12304783 C103.90274563 2.12304783 105.55274563 2.12304783 107.25274563 2.12304783 C104.73214787 4.64364558 103.50005804 4.48030151 100.00274563 4.87304783 C85.94662256 7.10924923 76.89286915 13.22412905 67.25274563 23.12304783 C66.59274563 23.78304783 65.93274563 24.44304783 65.25274563 25.12304783 C64.18453968 27.44523467 63.20104477 29.75303556 62.25274563 32.12304783 C61.74872219 33.30769627 61.24469875 34.4923447 60.72540188 35.71289158 C58.9075875 40.58591768 58.50696711 45.40387919 58.12774563 50.56054783 C57.97994867 52.3509654 57.83151672 54.14133068 57.68243313 55.93164158 C57.61379055 56.7925742 57.54514797 57.65350681 57.47442532 58.5405283 C57.14221343 62.41072364 56.70021442 66.26461083 56.25274563 70.12304783 C55.92274563 70.12304783 55.59274563 70.12304783 55.25274563 70.12304783 C55.25274563 67.15304783 55.25274563 64.18304783 55.25274563 61.12304783 C21.92274563 61.12304783 -11.40725437 61.12304783 -45.74725437 61.12304783 C-46.07725437 59.80304783 -46.40725437 58.48304783 -46.74725437 57.12304783 C-45.22644591 54.79478418 -43.71992233 52.79444487 -41.93475437 50.68554783 C-40.91192717 49.43220581 -39.88980718 48.17828636 -38.86834812 46.92382908 C-38.34611668 46.29041599 -37.82388523 45.65700291 -37.28582859 45.00439548 C-34.96752049 42.16959982 -32.72747897 39.27734421 -30.49725437 36.37304783 C-30.0875742 35.84308201 -29.67789402 35.31311619 -29.25579929 34.7670908 C-26.03719984 30.57636147 -23.03654069 26.25997354 -20.12225437 21.85351658 C-19.66850437 21.28246189 -19.21475437 20.7114072 -18.74725437 20.12304783 C-18.08725437 20.12304783 -17.42725437 20.12304783 -16.74725437 20.12304783 C-16.47912937 19.56617283 -16.21100437 19.00929783 -15.93475437 18.43554783 C-14.63825941 15.91079449 -13.32249114 13.48590298 -11.74725437 11.12304783 C-11.08725437 11.12304783 -10.42725437 11.12304783 -9.74725437 11.12304783 C-9.52037937 10.40117283 -9.29350437 9.67929783 -9.05975437 8.93554783 C-7.49455829 5.58155622 -5.45032721 3.61819199 -2.74725437 1.12304783 C-1.74725437 0.12304783 -1.74725437 0.12304783 0 0 Z " fill="#3C8914" transform="translate(204.74725437164307,193.87695217132568)"/>
<path d="M0 0 C27.72 0 55.44 0 84 0 C84 0.66 84 1.32 84 2 C85.65 2 87.3 2 89 2 C86.47940225 4.52059775 85.24731241 4.35725369 81.75 4.75 C75.24685229 5.7160473 69.95002393 7.93405429 64.03125 10.66015625 C61.64267137 11.71593263 59.54517858 12.49470719 57 13 C57 10.36 57 7.72 57 5 C33.57 5 10.14 5 -14 5 C-14 4.01 -14 3.02 -14 2 C-9.38 2 -4.76 2 0 2 C0 1.34 0 0.68 0 0 Z " fill="#37840E" transform="translate(223,194)"/>
<path d="M0 0 C46.53 0 93.06 0 141 0 C141 0.99 141 1.98 141 3 C123.05894629 3.17720279 105.11782513 3.34287973 87.17653942 3.49477577 C78.84639184 3.56557093 70.51631028 3.64016017 62.1862793 3.72363281 C54.9271785 3.79636443 47.66805437 3.86202677 40.4088133 3.91914403 C36.56387853 3.9496452 32.71904951 3.98372409 28.87422752 4.02626419 C25.25709252 4.06617353 21.64000204 4.09664684 18.02272224 4.11981392 C16.0587244 4.13486925 14.09481188 4.15999227 12.13092041 4.18537903 C10.96564316 4.19104385 9.80036591 4.19670868 8.59977722 4.20254517 C7.07743611 4.21637206 7.07743611 4.21637206 5.52434063 4.23047829 C3 4 3 4 0 2 C0 1.34 0 0.68 0 0 Z " fill="#9DB802" transform="translate(307,194)"/>
<path d="M0 0 C0.33 0 0.66 0 1 0 C1 52.8 1 105.6 1 160 C-0.98 160 -2.96 160 -5 160 C-4.67 136.57 -4.34 113.14 -4 89 C-3.67 89 -3.34 89 -3 89 C-2.67 93.95 -2.34 98.9 -2 104 C-1.16194798 91.42325485 -0.79901603 78.91046211 -0.68359375 66.30859375 C-0.66295801 64.38232547 -0.64196017 62.45606103 -0.62062073 60.52980042 C-0.56608201 55.52083504 -0.51637941 50.5118336 -0.46777344 45.50280762 C-0.41705217 40.36707444 -0.36163357 35.23139202 -0.30664062 30.09570312 C-0.19989659 20.0638457 -0.09827473 10.03194372 0 0 Z " fill="#77A356" transform="translate(332,256)"/>
<path d="M0 0 C0.99 0.495 0.99 0.495 2 1 C2 1.66 2 2.32 2 3 C1.01 3 0.02 3 -1 3 C-0.979375 4.134375 -0.95875 5.26875 -0.9375 6.4375 C-1 10 -1 10 -2 11 C-4.48953697 11.10033866 -6.95134953 11.13617943 -9.44140625 11.12939453 C-10.60964432 11.13202301 -10.60964432 11.13202301 -11.80148315 11.13470459 C-14.38851111 11.13912349 -16.97547129 11.13618499 -19.5625 11.1328125 C-21.35229506 11.13348553 -23.14209002 11.13445554 -24.93188477 11.13571167 C-28.68799711 11.13718869 -32.44408572 11.13503394 -36.20019531 11.13037109 C-41.02600493 11.1246738 -45.85175895 11.12795278 -50.67756653 11.13394356 C-54.37488223 11.13754905 -58.07218464 11.13641064 -61.76950073 11.13381577 C-63.54938768 11.13314646 -65.32927582 11.13397503 -67.10916138 11.13629532 C-69.59233822 11.13882165 -72.07542374 11.13498154 -74.55859375 11.12939453 C-75.30148651 11.13141876 -76.04437927 11.13344299 -76.80978394 11.13552856 C-81.88573738 11.11426262 -81.88573738 11.11426262 -83 10 C-86.24134873 9.74340041 -89.49972953 9.81027436 -92.75 9.8125 C-93.69834717 9.81185547 -94.64669434 9.81121094 -95.6237793 9.81054688 C-102.92337676 9.8651465 -109.83974844 10.51215552 -117 12 C-117 11.34 -117 10.68 -117 10 C-113.12665278 7.01962312 -110.24400338 6.64572136 -105.43212891 6.72460938 C-104.11344818 6.73689575 -102.79476746 6.74918213 -101.43612671 6.76184082 C-100.73224194 6.77521988 -100.02835716 6.78859894 -99.30314255 6.80238342 C-96.27309402 6.8593165 -93.24306119 6.88204527 -90.21260262 6.90645599 C-88.60593405 6.91946143 -86.99927769 6.9340627 -85.39263725 6.95017242 C-76.49677739 7.03331369 -67.60575783 6.91410791 -58.7109375 6.78125 C-57.10345627 6.75850706 -55.49597335 6.73588333 -53.88848877 6.71337891 C-49.86742052 6.65643002 -45.84639726 6.59676189 -41.82537842 6.53643799 C-37.64663252 6.47429857 -33.46784576 6.41503234 -29.2890625 6.35546875 C-21.19266764 6.23966853 -13.09632048 6.12088847 -5 6 C-4.814375 5.0409375 -4.814375 5.0409375 -4.625 4.0625 C-4.41875 3.381875 -4.2125 2.70125 -4 2 C-3.34 1.67 -2.68 1.34 -2 1 C-1.01 1.495 -1.01 1.495 0 2 C0 1.34 0 0.68 0 0 Z " fill="#83B506" transform="translate(413,244)"/>
<path d="M0 0 C1.47330574 0.005035 2.94661318 0.0095943 4.41992188 0.01367188 C7.9674844 0.02449623 11.51498052 0.04164545 15.0625 0.0625 C15.5575 1.5475 15.5575 1.5475 16.0625 3.0625 C12.81421176 4.37926478 9.56358665 5.69016137 6.3125 7 C5.39210938 7.37318359 4.47171875 7.74636719 3.5234375 8.13085938 C2.63398438 8.48857422 1.74453125 8.84628906 0.828125 9.21484375 C0.01118164 9.54476318 -0.80576172 9.87468262 -1.64746094 10.21459961 C-3.73229339 10.98652105 -5.77117652 11.5731197 -7.9375 12.0625 C-7.9375 9.4225 -7.9375 6.7825 -7.9375 4.0625 C-10.2475 4.0625 -12.5575 4.0625 -14.9375 4.0625 C-14.9375 3.4025 -14.9375 2.7425 -14.9375 2.0625 C-20.5475 2.0625 -26.1575 2.0625 -31.9375 2.0625 C-31.9375 1.7325 -31.9375 1.4025 -31.9375 1.0625 C-21.26728048 0.20217051 -10.69998343 -0.06487806 0 0 Z " fill="#2F770F" transform="translate(287.9375,194.9375)"/>
<path d="M0 0 C1.3303125 0.2475 1.3303125 0.2475 2.6875 0.5 C5.53596892 0.92995757 8.13004802 1.08441035 11 1 C10.42894531 1.27328125 9.85789062 1.5465625 9.26953125 1.828125 C-0.334924 6.78739621 -8.15461481 12.97177144 -13.73828125 22.2421875 C-14.15464844 22.82226562 -14.57101562 23.40234375 -15 24 C-15.66 24 -16.32 24 -17 24 C-19.81064767 21.18935233 -19.47294389 19.04452902 -19.75 15.125 C-19.84796875 13.89007813 -19.9459375 12.65515625 -20.046875 11.3828125 C-20 8 -20 8 -18 4 C-17.01 7.96 -16.02 11.92 -15 16 C-14.01 14.35 -13.02 12.7 -12 11 C-10.68 11.33 -9.36 11.66 -8 12 C-8 11.34 -8 10.68 -8 10 C-6.34211215 8.65576661 -4.67423683 7.32381517 -3 6 C-0.57886682 3.34852917 -0.57886682 3.34852917 0 0 Z " fill="#79B510" transform="translate(280,256)"/>
<path d="M0 0 C0.33 -0.33 0.66 -0.66 1 -1 C2.51928038 -1.07179964 4.04167482 -1.08392007 5.5625 -1.0625 C6.38878906 -1.05347656 7.21507812 -1.04445312 8.06640625 -1.03515625 C8.70449219 -1.02355469 9.34257812 -1.01195312 10 -1 C9.67 -0.01 9.34 0.98 9 2 C9.83144531 1.77183594 10.66289062 1.54367188 11.51953125 1.30859375 C12.60621094 1.02113281 13.69289063 0.73367187 14.8125 0.4375 C15.89144531 0.14746094 16.97039062 -0.14257812 18.08203125 -0.44140625 C21 -1 21 -1 24 0 C23.67 0.99 23.34 1.98 23 3 C22.01080566 2.98952637 21.02161133 2.97905273 20.00244141 2.96826172 C16.33857836 2.93210981 12.67473114 2.90911718 9.01074219 2.89013672 C7.42380117 2.88006812 5.83687875 2.86641233 4.25 2.84912109 C1.97130753 2.82490999 -0.30714006 2.81352578 -2.5859375 2.8046875 C-3.29744965 2.79436493 -4.00896179 2.78404236 -4.74203491 2.77340698 C-6.49631665 2.77300578 -8.24996709 2.87797791 -10 3 C-10.66 3.66 -11.32 4.32 -12 5 C-12.99 4.67 -13.98 4.34 -15 4 C-14.625 2.0625 -14.625 2.0625 -14 0 C-9.78648752 -2.10675624 -4.41494311 -1.23618407 0 0 Z " fill="#8BBC0C" transform="translate(311,249)"/>
<path d="M0 0 C0.99 0.495 0.99 0.495 2 1 C2 1.66 2 2.32 2 3 C1.01 3 0.02 3 -1 3 C-1 5.31 -1 7.62 -1 10 C-2.32 10.33 -3.64 10.66 -5 11 C-5.495 10.01 -5.495 10.01 -6 9 C-29.43 8.67 -52.86 8.34 -77 8 C-77 7.67 -77 7.34 -77 7 C-41.36 6.505 -41.36 6.505 -5 6 C-4.67 4.68 -4.34 3.36 -4 2 C-3.34 1.67 -2.68 1.34 -2 1 C-1.01 1.495 -1.01 1.495 0 2 C0 1.34 0 0.68 0 0 Z " fill="#89BD04" transform="translate(413,244)"/>
<path d="M0 0 C15.84 0.33 31.68 0.66 48 1 C48 1.66 48 2.32 48 3 C41.64659908 3.19352442 35.29289581 3.37094927 28.9387207 3.53710938 C26.77650747 3.59556074 24.61439113 3.65771723 22.45239258 3.72363281 C19.3473474 3.81766033 16.24219924 3.89842119 13.13671875 3.9765625 C11.68346443 4.02485703 11.68346443 4.02485703 10.20085144 4.0741272 C9.3001442 4.09429901 8.39943695 4.11447083 7.47143555 4.13525391 C6.28229805 4.16856308 6.28229805 4.16856308 5.06913757 4.20254517 C3 4 3 4 0 2 C0 1.34 0 0.68 0 0 Z " fill="#94C404" transform="translate(307,194)"/>
<path d="M0 0 C27.72 0 55.44 0 84 0 C84 0.66 84 1.32 84 2 C85.65 2 87.3 2 89 2 C87 4 87 4 83.875 4.125 C82.92625 4.08375 81.9775 4.0425 81 4 C80.505 3.01 80.505 3.01 80 2 C53.6 1.67 27.2 1.34 0 1 C0 0.67 0 0.34 0 0 Z " fill="#417D00" transform="translate(223,194)"/>
<path d="M0 0 C3.375 -0.125 3.375 -0.125 7 0 C9 2 9 2 9.13525391 5.07275391 C9.08288574 6.36101074 9.03051758 7.64926758 8.9765625 8.9765625 C8.95153656 9.66181 8.92651062 10.3470575 8.90072632 11.05307007 C8.81847691 13.2442131 8.72190952 15.43446111 8.625 17.625 C8.56676528 19.1093383 8.50946189 20.59371346 8.453125 22.078125 C8.31289242 25.71923974 8.15981249 29.3596862 8 33 C7.67 33 7.34 33 7 33 C7 30.69 7 28.38 7 26 C6.34 26 5.68 26 5 26 C5 17.75 5 9.5 5 1 C3.35 1 1.7 1 0 1 C0 0.67 0 0.34 0 0 Z " fill="#27611B" transform="translate(324,254)"/>
<path d="M0 0 C0.89267578 0.00644531 1.78535156 0.01289063 2.70507812 0.01953125 C4.09823242 0.04466797 4.09823242 0.04466797 5.51953125 0.0703125 C6.45990234 0.07933594 7.40027344 0.08835938 8.36914062 0.09765625 C10.69036093 0.12122194 13.01106769 0.15412134 15.33203125 0.1953125 C15.33203125 0.8553125 15.33203125 1.5153125 15.33203125 2.1953125 C14.40519531 2.24429688 13.47835937 2.29328125 12.5234375 2.34375 C11.32589844 2.41851562 10.12835938 2.49328125 8.89453125 2.5703125 C7.10208984 2.67472656 7.10208984 2.67472656 5.2734375 2.78125 C4.30277344 2.91789063 3.33210937 3.05453125 2.33203125 3.1953125 C2.00203125 3.8553125 1.67203125 4.5153125 1.33203125 5.1953125 C-1.171875 5.609375 -1.171875 5.609375 -4.23046875 5.8203125 C-5.24238281 5.89507812 -6.25429687 5.96984375 -7.296875 6.046875 C-8.07933594 6.09585938 -8.86179688 6.14484375 -9.66796875 6.1953125 C-7.57112599 1.3564446 -5.21816989 -0.0664735 0 0 Z " fill="#3A930B" transform="translate(207.66796875,193.8046875)"/>
<path d="M0 0 C1.05479805 0.03966133 1.05479805 0.03966133 2.13090515 0.0801239 C4.36291648 0.16745329 6.59322002 0.27674502 8.82421875 0.38671875 C10.34303899 0.45002316 11.86191998 0.51188766 13.38085938 0.57226562 C17.09199495 0.72292006 20.80192246 0.89327626 24.51171875 1.07421875 C24.18171875 2.06421875 23.85171875 3.05421875 23.51171875 4.07421875 C22.85171875 3.74421875 22.19171875 3.41421875 21.51171875 3.07421875 C18.24728292 2.83084833 14.97172184 2.88445776 11.69921875 2.88671875 C10.28346558 2.88575195 10.28346558 2.88575195 8.83911133 2.88476562 C1.55706117 2.9394945 -5.34520784 3.58994375 -12.48828125 5.07421875 C-12.48828125 4.41421875 -12.48828125 3.75421875 -12.48828125 3.07421875 C-8.3691586 -0.21048833 -5.14851094 -0.22563195 0 0 Z " fill="#80B313" transform="translate(308.48828125,250.92578125)"/>
<path d="M0 0 C0.99 0.33 1.98 0.66 3 1 C2.34 2.98 1.68 4.96 1 7 C-0.98 7 -2.96 7 -5 7 C-5.12375 7.598125 -5.2475 8.19625 -5.375 8.8125 C-6 11 -6 11 -8 14 C-8.66 14 -9.32 14 -10 14 C-9.00033596 7.87705777 -6.616611 5.21515422 -1.97265625 1.1875 C-1.32167969 0.795625 -0.67070312 0.40375 0 0 Z " fill="#27650C" transform="translate(278,264)"/>
<path d="M0 0 C13.6332574 -0.3690205 13.6332574 -0.3690205 20 2 C20 2.33 20 2.66 20 3 C17.22964291 3.22162857 14.45961005 3.42779249 11.6875 3.625 C10.90181641 3.68945312 10.11613281 3.75390625 9.30664062 3.8203125 C8.54931641 3.871875 7.79199219 3.9234375 7.01171875 3.9765625 C6.31522217 4.02893066 5.61872559 4.08129883 4.90112305 4.13525391 C3 4 3 4 0 2 C0 1.34 0 0.68 0 0 Z " fill="#8ABE04" transform="translate(307,194)"/>
<path d="M0 0 C7.26 0 14.52 0 22 0 C22 0.99 22 1.98 22 3 C20.02090602 3.02686553 18.04171029 3.04633375 16.0625 3.0625 C14.96035156 3.07410156 13.85820312 3.08570313 12.72265625 3.09765625 C10 3 10 3 9 2 C7.48530552 1.76807135 5.96245438 1.58784762 4.4375 1.4375 C3.61121094 1.35371094 2.78492188 1.26992187 1.93359375 1.18359375 C1.29550781 1.12300781 0.65742188 1.06242188 0 1 C0 0.67 0 0.34 0 0 Z " fill="#A0D702" transform="translate(426,194)"/>
<path d="M0 0 C0.33 0 0.66 0 1 0 C1.11381955 6.76594019 0.88021369 13.28837062 0 20 C-0.33 20 -0.66 20 -1 20 C-1 17.03 -1 14.06 -1 11 C-2.32 11 -3.64 11 -5 11 C-5 10.01 -5 9.02 -5 8 C-4.01 7.67 -3.02 7.34 -2 7 C-0.77030122 3.48809191 -0.77030122 3.48809191 0 0 Z " fill="#336F0E" transform="translate(261,244)"/>
<path d="M0 0 C0.33 0 0.66 0 1 0 C1.06058594 0.68707031 1.12117188 1.37414062 1.18359375 2.08203125 C1.26738281 2.98308594 1.35117187 3.88414062 1.4375 4.8125 C1.51871094 5.70582031 1.59992188 6.59914063 1.68359375 7.51953125 C1.93489767 10.12743559 1.93489767 10.12743559 3 13 C3.66 13.33 4.32 13.66 5 14 C4.67 15.65 4.34 17.3 4 19 C3.01 19 2.02 19 1 19 C-0.15316726 12.65758005 -0.09507063 6.43311296 0 0 Z " fill="#449F09" transform="translate(260,267)"/>
<path d="M0 0 C0.33 0.66 0.66 1.32 1 2 C-1.30482304 6.8755872 -2.98208429 9.63042869 -8 12 C-7.690625 11.2575 -7.38125 10.515 -7.0625 9.75 C-6.1905075 7.49307824 -5.52332993 5.3549847 -5 3 C-4.34 3 -3.68 3 -3 3 C-2.67 2.34 -2.34 1.68 -2 1 C-1.34 0.67 -0.68 0.34 0 0 Z " fill="#38840D" transform="translate(191,211)"/>
<path d="M0 0 C1.24546405 2.49092811 0.7767578 3.41080733 0 6 C-0.66 6 -1.32 6 -2 6 C-2 7.32 -2 8.64 -2 10 C-2.804375 10.12375 -3.60875 10.2475 -4.4375 10.375 C-5.283125 10.58125 -6.12875 10.7875 -7 11 C-7.33 11.66 -7.66 12.32 -8 13 C-7.39665691 9.29496359 -5.77525763 7.14031852 -3.4375 4.25 C-2.79683594 3.45078125 -2.15617188 2.6515625 -1.49609375 1.828125 C-1.00238281 1.22484375 -0.50867188 0.6215625 0 0 Z " fill="#42971F" transform="translate(166,241)"/>
<path d="M0 0 C0.66 0.33 1.32 0.66 2 1 C0.4027394 2.81901911 -1.2021871 4.63009734 -2.8125 6.4375 C-3.26431641 6.95376953 -3.71613281 7.47003906 -4.18164062 8.00195312 C-6.43034335 10.51327806 -7.74549181 11.91516394 -11 13 C-9.46356148 9.31930113 -7.21849055 7.01224796 -4.375 4.25 C-3.55773437 3.45078125 -2.74046875 2.6515625 -1.8984375 1.828125 C-0.95871094 0.92320312 -0.95871094 0.92320312 0 0 Z " fill="#82B712" transform="translate(280,208)"/>
<path d="M0 0 C0.33 0.66 0.66 1.32 1 2 C-0.98 4.31 -2.96 6.62 -5 9 C-5.33 8.01 -5.66 7.02 -6 6 C-6.99 6.495 -6.99 6.495 -8 7 C-6.86500606 3.70851757 -6.00716624 3.0040131 -2.875 1.25 C-1.92625 0.8375 -0.9775 0.425 0 0 Z " fill="#45901D" transform="translate(197,206)"/>
<path d="M0 0 C0 3.23655184 -0.6550847 4.78752639 -2 7.6875 C-2.556875 8.89986328 -2.556875 8.89986328 -3.125 10.13671875 C-3.41375 10.75160156 -3.7025 11.36648437 -4 12 C-4.99 12 -5.98 12 -7 12 C-7.99 12.495 -7.99 12.495 -9 13 C-7.50923566 9.7173068 -5.61379679 7.06922559 -3.375 4.25 C-2.74335938 3.45078125 -2.11171875 2.6515625 -1.4609375 1.828125 C-0.97882813 1.22484375 -0.49671875 0.6215625 0 0 Z " fill="#45A425" transform="translate(186,215)"/>
<path d="M0 0 C4 4.75 4 4.75 4 7 C3.34 7 2.68 7 2 7 C2 6.34 2 5.68 2 5 C1.34 5 0.68 5 0 5 C-0.33 5.66 -0.66 6.32 -1 7 C-1.04254356 5.00045254 -1.04080783 2.99958364 -1 1 C-0.67 0.67 -0.34 0.34 0 0 Z M-3 7 C-2.01 7.495 -2.01 7.495 -1 8 C-1.33 9.65 -1.66 11.3 -2 13 C-2.33 13 -2.66 13 -3 13 C-3 11.02 -3 9.04 -3 7 Z " fill="#23630F" transform="translate(266,281)"/>
<path d="M0 0 C6.93 0 13.86 0 21 0 C20.67 0.99 20.34 1.98 20 3 C19.34 2.67 18.68 2.34 18 2 C16.6265365 1.84995027 15.2471474 1.75161994 13.8671875 1.68359375 C13.06152344 1.64169922 12.25585938 1.59980469 11.42578125 1.55664062 C10.58402344 1.51732422 9.74226563 1.47800781 8.875 1.4375 C8.02550781 1.39431641 7.17601562 1.35113281 6.30078125 1.30664062 C4.20071777 1.20045764 2.10038052 1.09971503 0 1 C0 0.67 0 0.34 0 0 Z " fill="#75AA10" transform="translate(312,252)"/>
<path d="M0 0 C1.41750563 0.11509661 2.83401169 0.24253658 4.25 0.375 C5.03890625 0.44460937 5.8278125 0.51421875 6.640625 0.5859375 C9.085877 1.01507113 10.84836903 1.78600638 13 3 C11.39773045 3.22245393 9.79303233 3.42746669 8.1875 3.625 C7.29417969 3.74101562 6.40085937 3.85703125 5.48046875 3.9765625 C3 4 3 4 0 2 C0 1.34 0 0.68 0 0 Z " fill="#78AB07" transform="translate(307,194)"/>
<path d="M0 0 C0.886875 0.165 1.77375 0.33 2.6875 0.5 C5.53596892 0.92995757 8.13004802 1.08441035 11 1 C10.360625 1.309375 9.72125 1.61875 9.0625 1.9375 C7.06389179 2.8345163 7.06389179 2.8345163 6 4 C4.00041636 4.04080783 1.99954746 4.04254356 0 4 C0 2.68 0 1.36 0 0 Z " fill="#83B60F" transform="translate(280,256)"/>
<path d="M0 0 C1.98 0 3.96 0 6 0 C6 0.66 6 1.32 6 2 C7.65 2 9.3 2 11 2 C9 4 9 4 6.0625 4.375 C3 4 3 4 1.125 2 C0.75375 1.34 0.3825 0.68 0 0 Z " fill="#4A890A" transform="translate(301,194)"/>
<path d="M0 0 C0 0.66 0 1.32 0 2 C-2.31 2.33 -4.62 2.66 -7 3 C-7 2.01 -7 1.02 -7 0 C-4.3333581 -1.33332095 -2.83319697 -0.67102033 0 0 Z " fill="#348605" transform="translate(166,252)"/>
<path d="M0 0 C1.32 0.66 2.64 1.32 4 2 C3.67 2.99 3.34 3.98 3 5 C1.35 5 -0.3 5 -2 5 C-2 4.01 -2 3.02 -2 2 C-1.34 2 -0.68 2 0 2 C0 1.34 0 0.68 0 0 Z " fill="#9DC317" transform="translate(421,234)"/>
<path d="M0 0 C0.99 0 1.98 0 3 0 C2.6875 1.9375 2.6875 1.9375 2 4 C1.01 4.33 0.02 4.66 -1 5 C-1.99 4.01 -2.98 3.02 -4 2 C-2.68 2 -1.36 2 0 2 C0 1.34 0 0.68 0 0 Z " fill="#1E5D14" transform="translate(288,259)"/>
<path d="M0 0 C0.99 0.33 1.98 0.66 3 1 C1.625 3.5 1.625 3.5 0 6 C-0.66 6 -1.32 6 -2 6 C-1.125 1.125 -1.125 1.125 0 0 Z " fill="#225F13" transform="translate(278,264)"/>
<path d="M0 0 C0.33 0.66 0.66 1.32 1 2 C0.0625 4.125 0.0625 4.125 -1 6 C-2.32 5.34 -3.64 4.68 -5 4 C-4.34 3.67 -3.68 3.34 -3 3 C-2.67 2.34 -2.34 1.68 -2 1 C-1.34 0.67 -0.68 0.34 0 0 Z " fill="#2F7D09" transform="translate(191,211)"/>
</svg>
